<?xml version="1.0" encoding="utf-8"?>
<!-- Generator: Adobe Illustrator 16.0.0, SVG Export Plug-In . SVG Version: 6.00 Build 0)  -->
<!DOCTYPE svg PUBLIC "-//W3C//DTD SVG 1.1//EN" "http://www.w3.org/Graphics/SVG/1.1/DTD/svg11.dtd">
<svg version="1.1" id="Lager_1" xmlns="http://www.w3.org/2000/svg" xmlns:xlink="http://www.w3.org/1999/xlink" x="0px" y="0px"
	 width="112.331px" height="62.419px" viewBox="0 0 112.331 62.419" enable-background="new 0 0 112.331 62.419"
	 xml:space="preserve">
<path fill="#382415" d="M91.256,32.42c0.23-7.374-8.029-5.579-7.869-3.779c0.088,1.018,1.002,8.213-0.205,9.315
	c-1.211,1.102-5.688,2.73-5.922-0.021c-0.23-2.75-0.027-7.145-0.02-8.082c0.02-2.33-3.902-1.005-5.459,0.179
	c-1.561,1.178-1.496,5.621-1.496,5.621s-4.881,0.691-6.141-5.837c-1.258-6.53-7.825-0.142-9.588,1.435
	c-1.761,1.577-5.901,5.856-5.901,5.856l-0.421-7.834c0,0-1.372-6.161-8.189-3.604c-3.329,1.248-5.025,1.884-5.897,2.21
	c0.2-1.128,0.32-1.789,0.32-1.789s1.098-5.256,3.088-12.572s0.223-8.626,0.223-8.626c-3.976-7.858-8.378-3.891-8.378-3.891
	s-1.788,1.277-5.144,6.439C20.903,12.606,8.574,34.978,0.87,56.005c-4.101,9.905,7.632,5.384,7.632,5.384l5.326-14.606l10.76-5.817
	c0,0-2.759,6.038-3.322,12.027c-0.563,5.986,8.288,6.195,8.288,6.195c0.975-16.432-0.104,1.758,0,0
	c0.286-4.841,1.663-13.915,2.886-21.34c0.011-0.007,11.934-6.59,10.466-2.942c-1.469,3.646-1.164,18.557,6.029,12.573
	c7.192-5.989,9.971-9.563,9.971-9.563l0.775-0.653c0,0,1.654,9.822,6.494,8.252c4.842-1.573,5.309-3.048,5.309-3.048l0,0
	c0.256,0.547,0.232,0.457,0.451,0.924c0.752,1.623,4.229,4.1,9.445,2.757c0.637-0.166,1.561-0.505,2.096-0.716
	c-1.074,2.785-2.537,12.372-22.311,9.475c-5.161-0.756,9.164,10.15,20.375,4.43C92.567,53.708,91.02,39.793,91.256,32.42z
	 M27.261,29.106l-7.521,3.48L31.011,13.15L27.261,29.106z"/>
<path fill="#382415" d="M105.481,28.608c-0.77,2.506,0.504,8.008-3.613,9.19c-1.82,0.525-1.303-0.147-0.889-6.524
	c0.34-5.289-5.65-4.257-6.191-2.119c-0.539,2.135-6.385,17.601,4.156,17.877c8.641,0.224,13.93-8.618,13.342-15
	C111.487,23.386,106.096,26.603,105.481,28.608z"/>
</svg>
