<?xml version="1.0" encoding="utf-8"?>
<!-- Generator: Adobe Illustrator 16.0.0, SVG Export Plug-In . SVG Version: 6.00 Build 0)  -->
<!DOCTYPE svg PUBLIC "-//W3C//DTD SVG 1.1//EN" "http://www.w3.org/Graphics/SVG/1.1/DTD/svg11.dtd">
<svg version="1.1" id="Lager_1" xmlns="http://www.w3.org/2000/svg" xmlns:xlink="http://www.w3.org/1999/xlink" x="0px" y="0px"
	 width="24.953px" height="23.947px" viewBox="0 0 24.953 23.947" enable-background="new 0 0 24.953 23.947" xml:space="preserve">
<path fill="#FFFFFF" d="M23.862,2.62c0,1.025-0.035,1.856-2.744,1.856H3.748c-2.708,0-2.475-0.832-2.475-1.856l0,0
	c0-1.025-0.233-1.857,2.475-1.857h17.37C23.827,0.763,23.862,1.595,23.862,2.62L23.862,2.62z"/>
<path fill="#FFFFFF" d="M23.862,11.253c0,0.989-0.037,1.791-2.746,1.791H3.747c-2.708,0-2.475-0.802-2.475-1.791l0,0
	c0-0.99-0.233-1.792,2.475-1.792h17.369C23.825,9.461,23.862,10.263,23.862,11.253L23.862,11.253z"/>
<path fill="#FFFFFF" d="M23.863,20.405c0,1.141-0.037,2.066-2.746,2.066H3.748c-2.709,0-2.475-0.925-2.475-2.066l0,0
	c0-1.14-0.234-2.065,2.475-2.065h17.369C23.826,18.34,23.863,19.265,23.863,20.405L23.863,20.405z"/>
</svg>
